<?xml version="1.0" encoding="utf-8"?>
<!-- Generator: Adobe Illustrator 19.0.0, SVG Export Plug-In . SVG Version: 6.00 Build 0)  -->
<svg version="1.1" id="Capa_1" xmlns="http://www.w3.org/2000/svg" xmlns:xlink="http://www.w3.org/1999/xlink" x="0px" y="0px"
	 viewBox="0 0 100 100" style="enable-background:new 0 0 100 100;" xml:space="preserve">
<path id="XMLID_6_" d="M73.6,32.6c-0.3-0.5-0.9-0.6-1.4-0.3C56.7,44.6,49.5,58.8,49.5,58.8C43.8,50,37.8,45.3,37.8,45.3
	S36,43,34,45.2c-2,2.2,0,3.4,0,3.4c5.8,4.1,11.2,11.2,13.6,14.7c2.4,3.5,4.5,0,4.5,0c8.4-16.1,18.2-25.5,20.9-28
	c2.5,4.1,3.8,8.8,3.8,13.7c0,14.8-12,26.8-26.8,26.8S23.3,63.8,23.3,49s12-26.8,26.8-26.8c6.4,0,12.6,2.3,17.4,6.4
	c0.4,0.4,1,0.3,1.4-0.1c0.4-0.4,0.3-1.1-0.1-1.4c-5.2-4.5-11.9-6.9-18.7-6.9c-15.9,0-28.8,12.9-28.8,28.8
	c0,15.9,12.9,28.8,28.8,28.8c15.9,0,28.8-12.9,28.8-28.8C78.8,43.1,77,37.5,73.6,32.6z"/>
</svg>
